<svg version="1.1" id="Layer_1" xmlns="http://www.w3.org/2000/svg" xmlns:xlink="http://www.w3.org/1999/xlink" x="0px" y="0px"
	 width="100%" viewBox="0 0 500 500" enable-background="new 0 0 500 500" xml:space="preserve">
<path fill="#FFFFFF" opacity="1.000000" stroke="none" 
	d="
M459.000000,501.000000 
	C306.000031,501.000000 153.500076,501.000000 1.000082,501.000000 
	C1.000055,334.333405 1.000055,167.666824 1.000027,1.000171 
	C167.666550,1.000114 334.333099,1.000114 500.999756,1.000057 
	C500.999817,167.666519 500.999817,334.333038 500.999908,500.999756 
	C487.166656,501.000000 473.333344,501.000000 459.000000,501.000000 
M396.613892,268.853638 
	C403.315796,275.315216 410.475586,274.786743 418.028778,269.747803 
	C418.459686,273.914795 419.155273,278.207794 415.070709,279.773346 
	C412.408539,280.793732 407.723999,280.765625 405.970245,279.089111 
	C401.705566,275.012146 397.549744,277.265747 393.068695,276.800140 
	C395.604797,286.579315 402.619537,291.297638 412.791504,290.695068 
	C422.182770,290.138733 428.188995,285.010437 429.184631,275.753479 
	C429.857483,269.497650 429.574524,263.134399 429.632782,256.818390 
	C429.692169,250.382980 429.645935,243.946594 429.645935,236.577423 
	C425.223541,238.627380 419.991760,234.014236 417.718201,240.518860 
	C405.871277,231.903229 394.057495,239.326523 392.214050,250.362381 
	C391.148376,256.742035 391.716583,263.009644 396.613892,268.853638 
M62.491131,228.891144 
	C59.541180,228.456070 56.586662,227.620804 53.642056,227.654404 
	C40.056610,227.809433 30.482952,238.227203 31.300230,251.691849 
	C32.140430,265.534149 42.400513,274.229645 56.628414,273.157776 
	C69.784554,272.166595 77.215813,262.364471 75.550476,247.637207 
	C71.807526,247.637207 68.003342,247.637192 64.199165,247.637192 
	C60.245472,247.637192 56.291779,247.637207 52.344910,247.637207 
	C52.344910,250.614639 52.344910,253.031906 52.344910,255.844681 
	C54.788754,255.844681 56.923340,255.844681 59.057930,255.844681 
	C61.089661,255.844681 63.121387,255.844681 65.509407,255.844681 
	C62.515610,262.617126 58.028316,264.670990 51.309593,263.077515 
	C45.515026,261.703186 42.405582,256.866974 42.691917,249.674164 
	C42.950184,243.186401 46.517113,238.509705 52.121933,238.068069 
	C54.663391,237.867813 58.189346,237.831131 59.710484,239.316269 
	C64.339645,243.835861 69.512520,241.840332 74.994659,242.167328 
	C73.142159,235.451263 69.086205,231.470596 62.491131,228.891144 
M272.786072,259.201294 
	C270.192780,256.782288 262.407806,256.640137 260.207184,259.282776 
	C256.695770,263.499542 252.337006,264.049866 247.596390,262.490540 
	C243.110870,261.015137 240.697540,256.336090 240.692963,250.325546 
	C240.688965,245.089737 242.273926,240.218384 247.472626,238.743500 
	C250.726807,237.820282 256.064514,238.013626 258.038910,240.054871 
	C262.683624,244.856873 267.601227,242.969193 272.683838,243.203064 
	C270.727936,233.389938 261.839752,227.020676 251.242050,227.525452 
	C239.027679,228.107224 230.828995,235.771301 229.366302,247.974823 
	C228.012695,259.268188 234.695709,269.505035 245.362381,272.477325 
	C257.055695,275.735657 267.440552,270.939575 272.786072,259.201294 
M315.633179,265.397339 
	C315.467316,259.749725 315.715485,254.051712 315.035645,248.466660 
	C314.085327,240.659500 308.601929,236.315964 300.802826,237.105515 
	C297.519562,237.437897 294.369995,239.091400 290.890381,240.232681 
	C290.890381,235.629257 290.890381,230.862411 290.890381,225.849335 
	C287.134247,225.849335 283.719666,225.849335 280.347229,225.849335 
	C280.347229,241.689301 280.347229,257.237091 280.347229,272.741089 
	C283.983093,272.741089 287.246948,272.741089 290.967072,272.741089 
	C290.967072,266.700623 290.937378,260.916199 290.975281,255.132217 
	C291.014648,249.122482 293.404419,246.022705 297.846252,246.100693 
	C302.211792,246.177338 304.366150,248.940247 304.446045,254.847031 
	C304.526520,260.794556 304.463745,266.744049 304.463745,272.642670 
	C308.486603,272.642670 311.879974,272.642670 315.632690,272.642670 
	C315.632690,270.307312 315.632690,268.334442 315.633179,265.397339 
M321.387756,259.760895 
	C325.380646,273.483917 335.208344,277.236206 347.198181,269.615509 
	C349.566071,276.206207 354.657471,271.633881 358.569763,273.126709 
	C358.569763,260.801971 358.569763,249.243698 358.569763,237.173676 
	C354.331146,238.135025 349.278137,234.211014 346.935730,240.671341 
	C337.836487,232.869614 323.988403,237.023880 321.445312,250.481033 
	C320.929352,253.211319 321.272949,256.104034 321.387756,259.760895 
M108.145218,247.953964 
	C107.801331,251.240265 106.946907,254.568100 107.210274,257.804993 
	C107.968697,267.125946 115.092545,273.333557 124.683464,273.591827 
	C132.548111,273.803558 141.111603,268.489777 141.452988,261.139709 
	C136.672729,261.467529 131.956299,260.010162 127.371712,263.724884 
	C123.823967,266.599487 119.459854,263.521942 118.297005,257.704529 
	C126.460358,257.704529 134.521530,257.704529 142.494568,257.704529 
	C143.678467,247.435959 139.427017,240.249054 131.011551,237.625961 
	C121.598656,234.691971 113.010437,238.348846 108.145218,247.953964 
M181.587616,257.664368 
	C184.554626,245.801285 176.173004,236.357025 163.163101,236.904022 
	C155.034149,237.245804 148.689774,242.430664 147.056503,250.066910 
	C145.063721,259.384064 148.491638,267.847412 155.763611,271.564209 
	C163.054337,275.290588 172.762650,273.796448 177.832382,267.938446 
	C179.361374,266.171722 180.329346,263.919464 181.758896,261.550568 
	C173.592346,260.602570 173.592346,260.602570 167.367554,263.779236 
	C162.883774,266.067413 158.482742,263.356506 158.290100,257.846802 
	C165.783051,257.846802 173.266785,257.846802 181.587616,257.664368 
M461.824860,261.063660 
	C460.235809,261.722839 458.699310,262.627014 457.044983,262.982056 
	C454.730682,263.478790 452.102844,264.267883 450.036346,263.603363 
	C448.424347,263.084991 447.463379,260.542114 446.213074,258.898926 
	C446.512146,258.487946 446.811218,258.076996 447.110291,257.666016 
	C455.006042,257.666016 462.901794,257.666016 470.721344,257.666016 
	C471.751862,245.907318 465.997620,237.952484 456.234314,236.982880 
	C444.612549,235.828735 436.658936,241.786957 435.307770,252.659348 
	C433.969025,263.431793 440.270813,271.877441 450.774658,273.387939 
	C459.995422,274.713959 468.214478,269.494080 469.674408,261.063446 
	C467.318146,261.063446 465.013000,261.063446 461.824860,261.063660 
M199.286743,240.496750 
	C197.310379,233.150955 191.999542,239.190704 188.341965,236.727768 
	C188.341965,249.378967 188.341965,260.939056 188.341965,272.742004 
	C191.959061,272.742004 195.341705,272.742004 199.139923,272.742004 
	C199.139923,266.194489 198.967545,259.904999 199.191422,253.629684 
	C199.390381,248.052536 203.406677,244.919540 208.022949,246.399948 
	C211.836594,247.622955 212.830765,250.705475 212.863098,254.253372 
	C212.918701,260.358978 212.878464,266.465424 212.878464,272.689819 
	C216.750626,272.689819 220.125778,272.689819 223.853104,272.689819 
	C223.853104,265.917145 223.915329,259.460541 223.835098,253.005676 
	C223.759384,246.915451 222.409470,241.235413 216.367996,238.328354 
	C210.587433,235.546844 205.048767,236.673340 199.286743,240.496750 
M473.357727,229.002396 
	C478.180267,222.208786 483.002808,215.415161 487.877899,208.547531 
	C476.841187,203.686142 464.077209,205.204025 457.098358,212.245819 
	C452.866394,216.515930 451.088867,221.821945 451.816864,227.924042 
	C454.998230,222.284012 457.075958,215.890610 464.610382,213.220551 
	C461.152832,218.758377 458.067322,223.700348 454.734711,229.038101 
	C461.666565,231.408035 467.188324,233.166229 473.357727,229.002396 
M379.157532,250.849564 
	C382.196350,249.816742 385.235199,248.783920 388.453064,247.690247 
	C388.453064,244.409470 388.453064,240.856506 388.453064,236.093536 
	C384.532928,237.853836 381.334930,239.289856 378.181702,240.705780 
	C376.188293,233.589050 370.665405,238.738159 366.668335,236.804276 
	C366.668335,249.368118 366.668335,261.051849 366.668335,272.644409 
	C370.445099,272.644409 373.836853,272.644409 377.007843,272.644409 
	C377.569275,265.347168 378.100403,258.443817 379.157532,250.849564 
M92.951202,271.221313 
	C92.956810,266.726959 92.936592,262.232391 92.973991,257.738312 
	C93.031990,250.768234 94.437233,249.234482 101.211220,248.619888 
	C102.010948,248.547333 102.808052,248.445908 103.826538,248.333588 
	C103.826538,244.510208 103.826538,240.922958 103.826538,236.080338 
	C99.835831,238.038391 96.449074,239.700104 93.149315,241.319138 
	C92.979965,240.148300 92.778145,238.752930 92.590691,237.456955 
	C88.911057,237.456955 85.650864,237.456955 82.337219,237.456955 
	C82.337219,249.443771 82.337219,261.142242 82.337219,273.402924 
	C86.120354,272.956421 89.485306,272.559265 92.951202,271.221313 
z"/>
<path fill="#787878" opacity="1.000000" stroke="none" 
	d="
M396.369568,268.584351 
	C391.716583,263.009644 391.148376,256.742035 392.214050,250.362381 
	C394.057495,239.326523 405.871277,231.903229 417.718109,240.518494 
	C419.991760,234.014236 425.223541,238.627380 429.645935,236.577423 
	C429.645935,243.946594 429.692169,250.382980 429.632782,256.818390 
	C429.574524,263.134399 429.857483,269.497650 429.184631,275.753479 
	C428.188995,285.010437 422.182770,290.138733 412.791504,290.695068 
	C402.619537,291.297638 395.604797,286.579315 393.068695,276.800140 
	C397.549744,277.265747 401.705566,275.012146 405.970245,279.089111 
	C407.723999,280.765625 412.408539,280.793732 415.070709,279.773346 
	C419.155273,278.207794 418.459686,273.914795 418.028778,269.747803 
	C410.475586,274.786743 403.315796,275.315216 396.369568,268.584351 
M409.081268,246.575760 
	C407.917419,247.177567 406.517181,247.542313 405.632660,248.424225 
	C402.608643,251.439438 401.791351,255.447372 403.875549,258.872925 
	C405.267273,261.160339 408.516479,263.515503 410.998383,263.585907 
	C413.230225,263.649200 416.750671,261.102692 417.601288,258.896973 
	C420.016571,252.633926 416.980988,245.876740 409.081268,246.575760 
z"/>
<path fill="#2A9C60" opacity="1.000000" stroke="none" 
	d="
M62.866619,228.990051 
	C69.086205,231.470596 73.142159,235.451263 74.994659,242.167328 
	C69.512520,241.840332 64.339645,243.835861 59.710484,239.316269 
	C58.189346,237.831131 54.663391,237.867813 52.121933,238.068069 
	C46.517113,238.509705 42.950184,243.186401 42.691917,249.674164 
	C42.405582,256.866974 45.515026,261.703186 51.309593,263.077515 
	C58.028316,264.670990 62.515610,262.617126 65.509407,255.844681 
	C63.121387,255.844681 61.089661,255.844681 59.057930,255.844681 
	C56.923340,255.844681 54.788754,255.844681 52.344910,255.844681 
	C52.344910,253.031906 52.344910,250.614639 52.344910,247.637207 
	C56.291779,247.637207 60.245472,247.637192 64.199165,247.637192 
	C68.003342,247.637192 71.807526,247.637207 75.550476,247.637207 
	C77.215813,262.364471 69.784554,272.166595 56.628414,273.157776 
	C42.400513,274.229645 32.140430,265.534149 31.300230,251.691849 
	C30.482952,238.227203 40.056610,227.809433 53.642056,227.654404 
	C56.586662,227.620804 59.541180,228.456070 62.866619,228.990051 
z"/>
<path fill="#777777" opacity="1.000000" stroke="none" 
	d="
M272.661407,259.564331 
	C267.440552,270.939575 257.055695,275.735657 245.362381,272.477325 
	C234.695709,269.505035 228.012695,259.268188 229.366302,247.974823 
	C230.828995,235.771301 239.027679,228.107224 251.242050,227.525452 
	C261.839752,227.020676 270.727936,233.389938 272.683838,243.203064 
	C267.601227,242.969193 262.683624,244.856873 258.038910,240.054871 
	C256.064514,238.013626 250.726807,237.820282 247.472626,238.743500 
	C242.273926,240.218384 240.688965,245.089737 240.692963,250.325546 
	C240.697540,256.336090 243.110870,261.015137 247.596390,262.490540 
	C252.337006,264.049866 256.695770,263.499542 260.207184,259.282776 
	C262.407806,256.640137 270.192780,256.782288 272.661407,259.564331 
z"/>
<path fill="#767676" opacity="1.000000" stroke="none" 
	d="
M315.632935,265.879456 
	C315.632690,268.334442 315.632690,270.307312 315.632690,272.642670 
	C311.879974,272.642670 308.486603,272.642670 304.463745,272.642670 
	C304.463745,266.744049 304.526520,260.794556 304.446045,254.847031 
	C304.366150,248.940247 302.211792,246.177338 297.846252,246.100693 
	C293.404419,246.022705 291.014648,249.122482 290.975281,255.132217 
	C290.937378,260.916199 290.967072,266.700623 290.967072,272.741089 
	C287.246948,272.741089 283.983093,272.741089 280.347229,272.741089 
	C280.347229,257.237091 280.347229,241.689301 280.347229,225.849335 
	C283.719666,225.849335 287.134247,225.849335 290.890381,225.849335 
	C290.890381,230.862411 290.890381,235.629257 290.890381,240.232681 
	C294.369995,239.091400 297.519562,237.437897 300.802826,237.105515 
	C308.601929,236.315964 314.085327,240.659500 315.035645,248.466660 
	C315.715485,254.051712 315.467316,259.749725 315.632935,265.879456 
z"/>
<path fill="#777777" opacity="1.000000" stroke="none" 
	d="
M321.304016,259.341370 
	C321.272949,256.104034 320.929352,253.211319 321.445312,250.481033 
	C323.988403,237.023880 337.836487,232.869614 346.935730,240.671341 
	C349.278137,234.211014 354.331146,238.135025 358.569763,237.173676 
	C358.569763,249.243698 358.569763,260.801971 358.569763,273.126709 
	C354.657471,271.633881 349.566071,276.206207 347.198181,269.615479 
	C335.208344,277.236206 325.380646,273.483917 321.304016,259.341370 
M343.249908,247.094818 
	C338.795349,245.283707 335.389343,246.697403 333.147766,250.729126 
	C331.001007,254.590286 332.192535,260.122253 335.553986,262.475098 
	C338.840088,264.775177 342.165405,264.553345 345.136200,261.888428 
	C348.361023,258.995667 348.733917,253.355133 346.047668,249.523483 
	C345.488861,248.726425 344.631256,248.138840 343.249908,247.094818 
z"/>
<path fill="#2C9C61" opacity="1.000000" stroke="none" 
	d="
M108.300331,247.592178 
	C113.010437,238.348846 121.598656,234.691971 131.011551,237.625961 
	C139.427017,240.249054 143.678467,247.435959 142.494568,257.704529 
	C134.521530,257.704529 126.460358,257.704529 118.297005,257.704529 
	C119.459854,263.521942 123.823967,266.599487 127.371712,263.724884 
	C131.956299,260.010162 136.672729,261.467529 141.452988,261.139709 
	C141.111603,268.489777 132.548111,273.803558 124.683464,273.591827 
	C115.092545,273.333557 107.968697,267.125946 107.210274,257.804993 
	C106.946907,254.568100 107.801331,251.240265 108.300331,247.592178 
M122.463142,245.964844 
	C120.886711,247.556839 119.310272,249.148834 116.978790,251.503326 
	C122.807144,251.503326 127.031654,251.503326 131.318604,251.503326 
	C130.122543,246.294052 129.156967,245.651321 122.463142,245.964844 
z"/>
<path fill="#2A9C60" opacity="1.000000" stroke="none" 
	d="
M181.169067,257.755585 
	C173.266785,257.846802 165.783051,257.846802 158.290100,257.846802 
	C158.482742,263.356506 162.883774,266.067413 167.367554,263.779236 
	C173.592346,260.602570 173.592346,260.602570 181.758896,261.550568 
	C180.329346,263.919464 179.361374,266.171722 177.832382,267.938446 
	C172.762650,273.796448 163.054337,275.290588 155.763611,271.564209 
	C148.491638,267.847412 145.063721,259.384064 147.056503,250.066910 
	C148.689774,242.430664 155.034149,237.245804 163.163101,236.904022 
	C176.173004,236.357025 184.554626,245.801285 181.169067,257.755585 
M169.838898,247.890808 
	C164.045303,243.791428 159.393341,245.143326 158.128189,251.806915 
	C161.770370,251.806915 165.342545,251.944595 168.880997,251.661255 
	C169.423416,251.617828 169.810349,249.632446 169.838898,247.890808 
z"/>
<path fill="#777777" opacity="1.000000" stroke="none" 
	d="
M462.266357,261.063538 
	C465.013000,261.063446 467.318146,261.063446 469.674408,261.063446 
	C468.214478,269.494080 459.995422,274.713959 450.774658,273.387939 
	C440.270813,271.877441 433.969025,263.431793 435.307770,252.659348 
	C436.658936,241.786957 444.612549,235.828735 456.234314,236.982880 
	C465.997620,237.952484 471.751862,245.907318 470.721344,257.666016 
	C462.901794,257.666016 455.006042,257.666016 447.110291,257.666016 
	C446.811218,258.076996 446.512146,258.487946 446.213074,258.898926 
	C447.463379,260.542114 448.424347,263.084991 450.036346,263.603363 
	C452.102844,264.267883 454.730682,263.478790 457.044983,262.982056 
	C458.699310,262.627014 460.235809,261.722839 462.266357,261.063538 
M446.683441,250.107864 
	C446.889771,250.635544 447.085999,251.618668 447.303894,251.623474 
	C451.438812,251.714905 455.576263,251.690887 459.713165,251.690887 
	C459.967682,251.103729 460.222198,250.516571 460.476715,249.929413 
	C458.557343,248.543686 456.819672,246.599503 454.676331,245.902267 
	C451.407196,244.838852 448.558533,246.140594 446.683441,250.107864 
z"/>
<path fill="#2A9C60" opacity="1.000000" stroke="none" 
	d="
M199.666504,240.545975 
	C205.048767,236.673340 210.587433,235.546844 216.367996,238.328354 
	C222.409470,241.235413 223.759384,246.915451 223.835098,253.005676 
	C223.915329,259.460541 223.853104,265.917145 223.853104,272.689819 
	C220.125778,272.689819 216.750626,272.689819 212.878464,272.689819 
	C212.878464,266.465424 212.918701,260.358978 212.863098,254.253372 
	C212.830765,250.705475 211.836594,247.622955 208.022949,246.399948 
	C203.406677,244.919540 199.390381,248.052536 199.191422,253.629684 
	C198.967545,259.904999 199.139923,266.194489 199.139923,272.742004 
	C195.341705,272.742004 191.959061,272.742004 188.341965,272.742004 
	C188.341965,260.939056 188.341965,249.378967 188.341965,236.727768 
	C191.999542,239.190704 197.310379,233.150955 199.666504,240.545975 
z"/>
<path fill="#2C9C61" opacity="1.000000" stroke="none" 
	d="
M473.044617,229.202728 
	C467.188324,233.166229 461.666565,231.408035 454.734711,229.038101 
	C458.067322,223.700348 461.152832,218.758377 464.610382,213.220551 
	C457.075958,215.890610 454.998230,222.284012 451.816864,227.924042 
	C451.088867,221.821945 452.866394,216.515930 457.098358,212.245819 
	C464.077209,205.204025 476.841187,203.686142 487.877899,208.547531 
	C483.002808,215.415161 478.180267,222.208786 473.044617,229.202728 
M470.010101,211.981033 
	C470.144501,211.894608 470.295532,211.825012 470.406586,211.715027 
	C470.466736,211.655457 470.458679,211.527023 470.481384,211.429657 
	C469.688904,211.524155 468.896423,211.618637 468.103943,211.713104 
	C468.493317,211.853348 468.882690,211.993591 470.010101,211.981033 
M465.000000,213.500000 
	C465.200012,213.633331 465.399994,213.766663 465.600006,213.899994 
	C465.566681,213.599991 465.533325,213.300003 465.000000,213.500000 
z"/>
<path fill="#7A7A7A" opacity="1.000000" stroke="none" 
	d="
M378.894531,251.195007 
	C378.100403,258.443817 377.569275,265.347168 377.007843,272.644409 
	C373.836853,272.644409 370.445099,272.644409 366.668335,272.644409 
	C366.668335,261.051849 366.668335,249.368118 366.668335,236.804276 
	C370.665405,238.738159 376.188293,233.589050 378.181702,240.705780 
	C381.334930,239.289856 384.532928,237.853836 388.453064,236.093536 
	C388.453064,240.856506 388.453064,244.409470 388.453064,247.690247 
	C385.235199,248.783920 382.196350,249.816742 378.894531,251.195007 
z"/>
<path fill="#299B5F" opacity="1.000000" stroke="none" 
	d="
M92.900726,271.691711 
	C89.485306,272.559265 86.120354,272.956421 82.337219,273.402924 
	C82.337219,261.142242 82.337219,249.443771 82.337219,237.456955 
	C85.650864,237.456955 88.911057,237.456955 92.590691,237.456955 
	C92.778145,238.752930 92.979965,240.148300 93.149315,241.319138 
	C96.449074,239.700104 99.835831,238.038391 103.826538,236.080338 
	C103.826538,240.922958 103.826538,244.510208 103.826538,248.333588 
	C102.808052,248.445908 102.010948,248.547333 101.211220,248.619888 
	C94.437233,249.234482 93.031990,250.768234 92.973991,257.738312 
	C92.936592,262.232391 92.956810,266.726959 92.900726,271.691711 
z"/>
<path fill="#FBFBFB" opacity="1.000000" stroke="none" 
	d="
M409.442535,246.473633 
	C416.980988,245.876740 420.016571,252.633926 417.601288,258.896973 
	C416.750671,261.102692 413.230225,263.649200 410.998383,263.585907 
	C408.516479,263.515503 405.267273,261.160339 403.875549,258.872925 
	C401.791351,255.447372 402.608643,251.439438 405.632660,248.424225 
	C406.517181,247.542313 407.917419,247.177567 409.442535,246.473633 
z"/>
<path fill="#F9F9F9" opacity="1.000000" stroke="none" 
	d="
M343.580627,247.274765 
	C344.631256,248.138840 345.488861,248.726425 346.047668,249.523483 
	C348.733917,253.355133 348.361023,258.995667 345.136200,261.888428 
	C342.165405,264.553345 338.840088,264.775177 335.553986,262.475098 
	C332.192535,260.122253 331.001007,254.590286 333.147766,250.729126 
	C335.389343,246.697403 338.795349,245.283707 343.580627,247.274765 
z"/>
<path fill="#ECF6F1" opacity="1.000000" stroke="none" 
	d="
M122.821686,245.895920 
	C129.156967,245.651321 130.122543,246.294052 131.318604,251.503326 
	C127.031654,251.503326 122.807144,251.503326 116.978790,251.503326 
	C119.310272,249.148834 120.886711,247.556839 122.821686,245.895920 
z"/>
<path fill="#ECF6F1" opacity="1.000000" stroke="none" 
	d="
M170.054047,248.218018 
	C169.810349,249.632446 169.423416,251.617828 168.880997,251.661255 
	C165.342545,251.944595 161.770370,251.806915 158.128189,251.806915 
	C159.393341,245.143326 164.045303,243.791428 170.054047,248.218018 
z"/>
<path fill="#ECF6F1" opacity="1.000000" stroke="none" 
	d="
M446.800629,249.759277 
	C448.558533,246.140594 451.407196,244.838852 454.676331,245.902267 
	C456.819672,246.599503 458.557343,248.543686 460.476715,249.929413 
	C460.222198,250.516571 459.967682,251.103729 459.713165,251.690887 
	C455.576263,251.690887 451.438812,251.714905 447.303894,251.623474 
	C447.085999,251.618668 446.889771,250.635544 446.800629,249.759277 
z"/>
<path fill="#FFFFFF" opacity="1.000000" stroke="none" 
	d="
M469.641083,212.057434 
	C468.882690,211.993591 468.493317,211.853348 468.103943,211.713104 
	C468.896423,211.618637 469.688904,211.524155 470.481384,211.429657 
	C470.458679,211.527023 470.466736,211.655457 470.406586,211.715027 
	C470.295532,211.825012 470.144501,211.894608 469.641083,212.057434 
z"/>
<path fill="#FFFFFF" opacity="1.000000" stroke="none" 
	d="
M465.250000,213.250000 
	C465.533325,213.300003 465.566681,213.599991 465.600006,213.899994 
	C465.399994,213.766663 465.200012,213.633331 465.250000,213.250000 
z"/>
</svg>